<?xml version="1.0" encoding="utf-8"?>
<!-- Generator: Adobe Illustrator 17.0.0, SVG Export Plug-In . SVG Version: 6.00 Build 0)  -->
<!DOCTYPE svg PUBLIC "-//W3C//DTD SVG 1.1//EN" "http://www.w3.org/Graphics/SVG/1.1/DTD/svg11.dtd">
<svg version="1.1" id="Слой_1" xmlns="http://www.w3.org/2000/svg" xmlns:xlink="http://www.w3.org/1999/xlink" x="0px" y="0px"
	 width="607.086px" height="424.441px" viewBox="0 0 607.086 424.441" enable-background="new 0 0 607.086 424.441"
	 xml:space="preserve">
<g>
	<g>
		<path fill="#73C0FF" d="M506.966,58.628c-0.82-3.175-2.078-6.173-3.703-8.929l3.77-5.67l-5.23-5.23l-5.23-5.231l-5.67,3.77
			c-2.757-1.625-5.754-2.883-8.929-3.704l-1.343-6.669h-7.398h-7.396l-1.343,6.669c-3.175,0.82-6.172,2.079-8.929,3.704l-5.67-3.77
			l-5.23,5.231l-5.23,5.23l3.77,5.67c-1.625,2.756-2.883,5.754-3.703,8.929l-6.67,1.342v7.397v7.397l6.67,1.342
			c0.82,3.175,2.078,6.173,3.703,8.929l-3.77,5.67l5.23,5.23l5.23,5.23l5.67-3.77c2.757,1.625,5.754,2.883,8.929,3.704l1.343,6.67
			h7.396h7.398l1.343-6.67c3.175-0.82,6.172-2.079,8.929-3.704l5.67,3.77l5.23-5.23l5.23-5.23l-3.77-5.67
			c1.625-2.756,2.883-5.754,3.703-8.929l6.67-1.342v-7.397V59.97L506.966,58.628z M473.232,93.287
			c-14.314,0-25.919-11.605-25.919-25.92c0-14.315,11.604-25.92,25.919-25.92c14.315,0,25.92,11.605,25.92,25.92
			C499.152,81.682,487.548,93.287,473.232,93.287z"/>
	</g>
	<g>
		<path fill="#73C0FF" d="M517.058,121.534c-0.376-1.455-0.953-2.83-1.698-4.093l1.729-2.6l-2.398-2.398l-2.397-2.398l-2.6,1.729
			c-1.264-0.745-2.638-1.322-4.094-1.698l-0.615-3.058h-3.391h-3.392l-0.616,3.058c-1.455,0.376-2.829,0.953-4.093,1.698l-2.6-1.729
			l-2.397,2.398l-2.398,2.398l1.729,2.6c-0.745,1.263-1.321,2.638-1.698,4.093l-3.057,0.615v3.391v3.391l3.057,0.616
			c0.377,1.456,0.953,2.83,1.698,4.093l-1.729,2.6l2.398,2.397l2.397,2.398l2.6-1.729c1.264,0.745,2.638,1.322,4.093,1.698
			l0.616,3.058h3.392h3.391l0.615-3.058c1.456-0.376,2.83-0.953,4.094-1.698l2.6,1.729l2.397-2.398l2.398-2.397l-1.729-2.6
			c0.745-1.264,1.322-2.638,1.698-4.093l3.058-0.616v-3.391v-3.391L517.058,121.534z M501.594,137.423
			c-6.563,0-11.884-5.32-11.884-11.883c0-6.563,5.32-11.883,11.884-11.883c6.563,0,11.883,5.32,11.883,11.883
			C513.477,132.104,508.156,137.423,501.594,137.423z"/>
	</g>
	<g>
		<rect x="302.119" y="246.671" fill="#4DA8F2" width="36.389" height="110.526"/>
	</g>
	<g>
		<path fill="#B5DEFF" d="M179.185,299.912h282.257c8.827,0,15.981-7.155,15.981-15.982V94.228c0-8.827-7.154-15.982-15.981-15.982
			H179.185c-8.826,0-15.982,7.155-15.982,15.982v189.703C163.203,292.757,170.358,299.912,179.185,299.912z"/>
	</g>
	<g>
		<rect x="175.509" y="54.653" fill="#FFFFFF" width="289.608" height="210.521"/>
	</g>
	<g>
		<linearGradient id="SVGID_1_" gradientUnits="userSpaceOnUse" x1="175.5093" y1="67.367" x2="465.1172" y2="67.367">
			<stop  offset="0" style="stop-color:#40D5E6"/>
			<stop  offset="1" style="stop-color:#5577FF"/>
		</linearGradient>
		<rect x="175.509" y="54.653" fill="url(#SVGID_1_)" width="289.608" height="25.427"/>
	</g>
	<g>
		<circle fill="#4DA8F2" cx="320.313" cy="281.07" r="10.135"/>
	</g>
	<g>
		<g>
			<g>
				<path fill="#DFE1E8" d="M273.26,105.7h86.498c1.943,0,3.518-1.575,3.518-3.517v-0.5c0-1.942-1.574-3.517-3.518-3.517H273.26
					c-1.942,0-3.517,1.575-3.517,3.517v0.5C269.743,104.125,271.317,105.7,273.26,105.7z"/>
			</g>
		</g>
	</g>
	<g>
		<g>
			<g>
				<path fill="#DFE1E8" d="M273.26,119.29h86.498c1.943,0,3.518-1.575,3.518-3.518v-0.5c0-1.942-1.574-3.517-3.518-3.517H273.26
					c-1.942,0-3.517,1.575-3.517,3.517v0.5C269.743,117.715,271.317,119.29,273.26,119.29z"/>
			</g>
		</g>
	</g>
	<g>
		<g>
			<g>
				<path fill="#DFE1E8" d="M273.26,132.878h86.498c1.943,0,3.518-1.575,3.518-3.517v-0.5c0-1.943-1.574-3.518-3.518-3.518H273.26
					c-1.942,0-3.517,1.575-3.517,3.518v0.5C269.743,131.304,271.317,132.878,273.26,132.878z"/>
			</g>
		</g>
	</g>
	<g>
		<g>
			<g>
				<g>
					<path fill="#DFE1E8" d="M313.893,250.362H205.334c-9.052,0-16.417-7.364-16.417-16.417V167.91
						c0-9.052,7.365-16.417,16.417-16.417h108.559c9.052,0,16.416,7.365,16.416,16.417v66.035
						C330.31,242.998,322.945,250.362,313.893,250.362z M205.334,153.551c-7.917,0-14.359,6.441-14.359,14.359v66.035
						c0,7.918,6.441,14.359,14.359,14.359h108.559c7.917,0,14.358-6.441,14.358-14.359V167.91c0-7.918-6.441-14.359-14.358-14.359
						H205.334z"/>
				</g>
			</g>
		</g>
	</g>
	<g>
		<g>
			<g>
				<path fill="#DFE1E8" d="M213.92,176.38h91.386c4.004,0,7.25-3.246,7.25-7.25v-1.38c0-4.004-3.246-7.25-7.25-7.25H213.92
					c-4.004,0-7.25,3.246-7.25,7.25v1.38C206.67,173.134,209.917,176.38,213.92,176.38z"/>
			</g>
		</g>
	</g>
	<rect x="238.458" y="353.025" fill="#B5DEFF" width="163.71" height="8.344"/>
	<g>
		<path fill="#EEF0F7" d="M432.548,173.19c0,8.675-4.688,16.255-11.67,20.347c-1.403,0.821-2.899,1.502-4.469,2.022
			c-0.141,0.048-0.283,0.094-0.426,0.138c-2.212,0.687-4.563,1.057-7,1.057c-3.763,0-7.319-0.882-10.475-2.449
			c-7.759-3.857-13.091-11.863-13.091-21.115c0-13.015,10.551-23.565,23.565-23.565C421.997,149.625,432.548,160.175,432.548,173.19
			z"/>
		<g>
			<path fill="#3C4145" d="M403.353,170.702c0,0-1.609-10.413,7.015-10.22c8.624,0.192,8.509,5.341,8.354,10.451
				c-0.153,5.11-3.458,4.726,0.27,11.834c3.727,7.108-3.228,7.108-3.228,7.108l-5.396-7.415L403.353,170.702z"/>
		</g>
		<g>
			<path fill="#EEA886" d="M409.425,161.481c0,0-5.841,0.922-6.071,9.221c-0.23,8.3,1.576,10.067,6.686,8.338
				c5.11-1.729,6.725-10.413,6.84-11.757C416.994,165.938,417.302,160.482,409.425,161.481z"/>
		</g>
		<g>
			<path fill="#E55353" d="M419.681,190.348c0.018,2.486-1.313,4.149-3.271,5.212c-0.141,0.048-0.283,0.094-0.426,0.138
				c-2.212,0.687-4.563,1.057-7,1.057c-3.763,0-7.319-0.882-10.475-2.449c-0.711-1.417,0.318-3.429,2.408-6.517
				c1.435-2.122,2.843-4.289,5.25-5.342c3.552-0.566,7.313-0.6,9.961,0.897C418.239,184.536,419.647,186.702,419.681,190.348z"/>
		</g>
		<g>
			<path fill="#E55353" d="M402.06,187.662l-2.684,4.232c0.006-0.023,0.184-0.664,0.488-2.519c0.058-0.353,0.12-0.749,0.187-1.192
				c0.018-0.131,0.047-0.262,0.084-0.39v-0.001c1.149-2.65,4.733-4.621,4.863-4.686L402.06,187.662z"/>
		</g>
		<g>
			<path fill="#EEA886" d="M420.878,193.537c-1.403,0.821-2.899,1.502-4.469,2.022c-0.141,0.048-0.283,0.094-0.426,0.138
				c-0.596-1.538-1.112-2.868-1.225-3.212c-0.032-0.1-0.109-0.287-0.214-0.539c-0.484-1.177-1.568-3.794-1.581-5.841
				c-0.009-1.32,0.427-2.402,1.755-2.71c0.523-0.121,0.991-0.129,1.409-0.052c1.483,0.269,2.349,1.601,2.831,2.782
				c0.009,0.021,0.016,0.04,0.022,0.06c0.403,1.005,0.529,1.883,0.529,1.883s0.023,0.093,0.066,0.259
				c0.083,0.33,0.242,0.955,0.449,1.774C420.263,191.041,420.56,192.237,420.878,193.537z"/>
		</g>
		<g>
			<path fill="#EEA886" d="M413.325,175.302c-0.507,0.956-1.041,6.891-1.041,6.891s-7.144,2.7-6.412,1.172
				c0.331-0.693,0.429-1.592,0.435-2.368c0.007-0.611-0.044-1.146-0.079-1.441c-0.018-0.156-0.033-0.246-0.033-0.246
				S413.831,174.346,413.325,175.302z"/>
		</g>
		<g>
			<path fill="#3C4145" d="M407.043,167.437c0,0,2.996,4.879,5.725,6.801c2.728,1.921,1.345,3.458,1.345,3.458
				s7.118-14.985,0.351-16.022c-6.768-1.037-10.917-1.114-11.109,9.029C403.353,170.702,406.428,167.359,407.043,167.437z"/>
		</g>
		<g>
			<path fill="#A77860" d="M410.302,178.944c-1.097,1.617-3.993,2.053-3.993,2.053s0,0-0.001,0c0.007-0.611-0.044-1.146-0.079-1.441
				C408.089,179.914,410.302,178.944,410.302,178.944z"/>
		</g>
		<path fill="#BD4444" d="M400.147,187.761C400.147,187.761,400.147,187.761,400.147,187.761c-0.001,0-0.156,0.321-0.283,1.614
			l1.052-1.588c0,0,1.879-2.694,2.523-3.395c0.644-0.701,1.576-1.316,1.576-1.316S401.271,184.854,400.147,187.761z"/>
		<path fill="#E55353" d="M414.361,191.778c0,0,4.585-1.798,5.941-1.903c0,0-0.922-7.362-5.426-6.582
			C410.373,184.074,414.361,191.778,414.361,191.778z"/>
		<path fill="#EEA886" d="M406.167,182.445c0,0-3.365,5.176-2.227,5.627c1.14,0.453,7.307-0.603,9.93-5.519
			C413.87,182.554,409.949,180.543,406.167,182.445z"/>
	</g>
	
		<rect x="121.559" y="296.323" transform="matrix(1 -0.0076 0.0076 1 -2.2544 1.0689)" fill="#323657" width="36.722" height="3.363"/>
	
		<rect x="143.706" y="279.815" transform="matrix(0.2925 -0.9563 0.9563 0.2925 -154.5197 354.1531)" fill="#323657" width="36.723" height="3.363"/>
	<g>
		<rect x="221.412" y="303.934" fill="#706865" width="2.865" height="88.279"/>
	</g>
	<g>
		<rect x="113.91" y="298.914" fill="#B59074" width="125.939" height="5.019"/>
	</g>
	<g>
		<rect x="130.023" y="303.934" fill="#706865" width="2.865" height="88.281"/>
	</g>
	<rect x="72.458" y="334.249" fill="#918783" width="3.445" height="43.479"/>
	<path fill="#1D3B54" d="M117.419,372.6c0,0,0.034,1.922,0.657,4.16c0.457,1.641,1.376,7.996,2.549,8.885
		c1.173,0.889,4.955,3.244,4.4,5.664c-0.556,2.42-1.026,4.108-5.11,2.675c-4.084-1.434-6.815-2.253-7.599-5.838
		c-0.785-3.584-3.02-6.848-3.02-6.848l-2.952,7.343l-1.557-0.627c0,0,2.354-7.931,2.152-8.638c-0.203-0.707,1.079-7.009,6.019-8.569
		C117.898,369.246,117.419,372.6,117.419,372.6z"/>
	<path fill="#1D3B54" d="M144.701,374.916c0,0,0.749,1.77,2.162,3.613c1.037,1.353,4.259,6.905,5.679,7.292
		c1.42,0.388,5.808,1.162,6.195,3.614c0.387,2.452,0.581,4.195-3.743,4.389c-4.324,0.193-7.163,0.451-9.228-2.582
		c-2.065-3.033-5.356-5.227-5.356-5.227v7.913h-1.678c0,0-0.774-8.235-1.226-8.816c-0.452-0.581-1.614-6.905,2.388-10.196
		C143.894,371.625,144.701,374.916,144.701,374.916z"/>
	<path fill="#EEA886" d="M100.736,267.379c0,0,0.961-3.408,1.055-3.854c0.094-0.443,1.003-1.326,2.136-2.248
		c1.132-0.923,3.075-1.662,3.316-1.587c0.24,0.075,0.518,0.039,0.915,0.549c0.396,0.511,0.451,1.16,0.451,1.16
		s0.785,0.399,0.791,1.205c0,0,0.721,0.409,0.58,1.325c0,0,0.693,0.42,0.534,1.076c0,0-0.91,0.887-1.152,1.311
		c-0.242,0.426-2.261,2.139-4.451,3.483C104.91,269.8,102.116,271.863,100.736,267.379z"/>
	<path fill="#CF8C6C" d="M104.918,264.678c0,0,0.414,1.435,0.327,1.896c-0.088,0.461,3.276,0.528,3.276,0.528
		S106.675,264.222,104.918,264.678z"/>
	<path fill="#1D3B54" d="M67.048,273.238c1.358-2.199,3.17-3.189,8.925,0.791c5.755,3.98,4.403,3.2,5.781,4.462
		c1.378,1.261,7.416,4.417,7.416,4.417s3.527-3.506,5.218-5.998c1.907-2.807,5.887-10.307,5.887-10.307l5.581,4.154
		c0,0-10.842,19.655-13.106,21.108c-2.264,1.452-9.087-0.978-12.639-2.474c-3.552-1.497-7.312-3.434-8.934-3.836
		C69.554,285.154,63.505,278.975,67.048,273.238z"/>
	
		<rect x="106.56" y="250.361" transform="matrix(0.9768 0.2143 -0.2143 0.9768 57.4912 -16.9871)" fill="#EB4747" width="1.066" height="12.612"/>
	<path fill="#DB9C7C" d="M106.937,259.921c0,0-2.813,2.408-2.481,2.909c0.331,0.5,0.758,0.483,0.758,0.483l-0.708,1.517
		c0,0,0.098,1.269,1.451,0.791c0,0-0.031,1.195,1.22,0.578c0,0,0.331,0.797,0.961,0.614c0.63-0.183,2.376-1.808,2.376-1.808
		s0.214-0.508-0.534-1.076c0,0,0.188-0.869-0.58-1.325c0,0,0.041-0.721-0.791-1.205c0,0-0.033-1.612-1.366-1.709
		C107.243,259.69,107.054,259.818,106.937,259.921z"/>
	<path fill="#EEA886" d="M101.83,263.563c0,0,1.885-1.704,3.322-2.184c0.325-0.108,0.66-0.154,0.883,0.107
		c0.223,0.262,0.129,0.916-0.65,1.696c-0.778,0.78-1.428,2.145-1.428,2.145S102.922,265.895,101.83,263.563z"/>
	<path fill="#152C3D" d="M93.874,285.177c0,0,1.133-4.106-0.202-7.286c0,0,0.508,3.291-0.934,5.631
		C91.695,285.218,93.874,285.177,93.874,285.177z"/>
	<path fill="#EDDAD3" d="M114.434,285.813c0,0,3.038-22.51,8.334-32.324h-7.789c0,0-8.724,15.372-7.088,30.898L114.434,285.813z"/>
	<path fill="#EEA886" d="M116.299,268.961c0,0,0.889-1.656,1.103-2.197c0.214-0.54,1.087,0.397,0.956,1.092
		C118.225,268.55,116.299,268.961,116.299,268.961z"/>
	<path fill="#EEA886" d="M123.206,272.725c0,0-0.235,0.811-0.511,1.116c0,0-0.544,0.515-0.909,0.905
		c-0.115,0.124-0.213,0.234-0.269,0.313c-0.233,0.325-0.646,1.111-1.424,1.737c-0.777,0.626-3.748,2.559-3.748,2.559l-2.096-2.239
		l-1.678-1.745c0,0,1.418-5.33,2.076-5.997c0.064-0.065,0.13-0.127,0.197-0.18c0.611-0.511,1.281-0.635,1.632-0.865
		c0.129-0.085,1.474-0.836,1.902-0.67c0.596,0.23,0.916,0.632,1.008,1.06c0,0,1.146,0.503,1.529,1.253c0,0,1.073,0.43,1.283,1.499
		C122.198,271.47,123.237,272.027,123.206,272.725z"/>
	<path fill="#EEA886" d="M136.995,330.853c0,0-5.147,11.58-8.82,19.844c-0.617,1.392-1.193,2.688-1.696,3.818
		c-0.589,1.326-1.078,2.424-1.414,3.183c-2.338,5.261-8.09,16.732-8.09,16.732s-4.328,0.165-4.579-3.51
		c0,0,4.152-7.962,4.152-13.557c0-5.596,0.751-22.076,6.096-25.639C129.161,327.381,133.393,326.558,136.995,330.853z"/>
	<path fill="#EEA886" d="M89.405,308.843c0,0,1.086,1.086,2.004,1.336c0.918,0.251,16.285,1.421,23.383,3.759
		c7.098,2.338,16.535,3.842,18.288,5.846c1.754,2.004,4.677,13.027,4.593,15.115c-0.084,2.088,6.238,37.271,7.026,40.018
		c0.417,1.455-5.717,0.898-5.717,0.898s-8.717-20.79-10.578-24.631c-3.421-7.057-3.591-15.7-4.844-17.037
		c-1.253-1.336-15.199-4.342-23.216-4.342s-25.972,0.668-27.893-0.418c-1.921-1.086-13.946-9.02-8.935-19.625
		C68.527,299.156,89.405,308.843,89.405,308.843z"/>
	<path fill="#1D3B54" d="M124.084,316.438l-12.72,24.475c0,0-3.831-9.082-10.515-10.646c-6.685-1.563-33.36-0.725-33.36-0.725
		s-12.241-15.484-1.758-23.607c10.482-8.123,22.724,1.278,22.724,1.278s2.529,2.741,3.752,2.802
		C101.102,310.458,110.586,312.114,124.084,316.438z"/>
	<path fill="#EEA886" d="M152.542,385.821c0,0-3.872,0.969-5.357,0c-1.484-0.967-6.53-9.496-8.202-10.007
		c0,0,1.62-3.286,5.717-0.898C144.701,374.916,151.444,384.402,152.542,385.821z"/>
	<path fill="#EEA886" d="M120.625,385.645c0,0-3.954-0.547-4.97-1.999c-1.016-1.451-2.516-11.247-3.876-12.345
		c0,0,2.729-2.445,5.64,1.299C117.419,372.6,120.137,383.917,120.625,385.645z"/>
	<path fill="#EEA886" d="M80.228,231.98c3.055-0.148,9.831,1.389,10.874,9.484c0,0-0.244,2.182-0.774,3.898
		c-0.53,1.714,1.007,6.77,0.606,7.02c-0.401,0.248-2.058,0.567-2.058,0.567s-1.782,5.523-3.721,5.477
		c-1.939-0.048-9.28-1.564-12.737-8.436C68.96,243.12,67.893,232.577,80.228,231.98z"/>
	<path fill="#EEA886" d="M82.535,255.907c0,0-0.238,0.774-0.509,1.923c-0.139,0.588-0.286,1.271-0.414,2
		c-0.352,2.016-0.558,4.371-0.036,5.939c0,0-4.287,1.485-7.674-4.574c0,0,1.455-6.527-0.436-10.486
		C71.576,246.752,82.535,255.907,82.535,255.907z"/>
	<path fill="#1D3B54" d="M91.102,241.465c0,0-4.687,4.207-9.644,3.874c-5.035-0.339-8.303,5.952-8.303,5.952
		s-7.494-9.404-1.453-17.008C77.744,226.678,92.173,232.028,91.102,241.465z"/>
	<path fill="#EEA886" d="M79.175,245.302c-0.027-0.953-1.087-2.383-2.648-1.081c-1.562,1.303,0.538,5.832,1.817,5.389
		C79.624,249.165,79.203,246.286,79.175,245.302z"/>
	<path fill="#A77860" d="M82.026,257.83c-0.139,0.588-0.286,1.271-0.414,2c-3.981-2.528-5.985-5.598-5.985-5.598
		C77.903,256.29,82.026,257.83,82.026,257.83z"/>
	<path fill="#1D3B54" d="M93.648,280.987c-0.902,4.183-3.277,4.401-3.133,7.491c0.144,3.089,1.066,3.354-0.531,8.226
		c-0.295,0.901-0.536,1.884-0.729,2.886c-0.022,0.118-0.046,0.237-0.066,0.356c-0.104,0.563-0.193,1.129-0.27,1.688
		c-0.142,1.034-0.245,2.044-0.316,2.966c-0.188,2.404,1.583,4.26,1.583,4.26s-15.631,9.365-26.363,8.051
		c0,0,2.778-11.678,4.309-15.689c1.53-4.011,1.068-22.547-0.058-26.525c-1.661-5.87,1.658-14.671,6.195-15.817l7.035,3.258
		c0,0,7.087,8.463,8.676,9.74C91.567,273.155,94.564,276.746,93.648,280.987z"/>
	<path fill="#1D3B54" d="M70.395,263.852c1.987-1.654,4.862-4.486,9.055,1.115c4.193,5.602,7.244,9.211,8.15,10.845
		c0.906,1.634,8.789,13.014,8.789,13.014s4.188-3.888,6.583-5.712c2.699-2.057,10.055-9.721,10.055-9.721l4.862,5.391
		c0,0-16.867,18.717-19.475,19.375c-2.608,0.66-9.913-5.913-12.806-8.461c-2.893-2.547-11.01-11.822-12.42-12.72
		C71.777,276.081,65.214,268.166,70.395,263.852z"/>
	<path fill="#A77860" d="M128.175,350.696c-0.617,1.392-1.193,2.688-1.696,3.818c-1.893-6.087-1.737-16.259-1.737-16.259
		C125.878,345.348,128.141,350.615,128.175,350.696z"/>
	<rect x="46.673" y="329.542" fill="#B5DEFF" width="54.176" height="5.962"/>
	<path fill="#B5DEFF" d="M74.864,310.525c0,0-1.366,5.523,5.065,6.778c6.431,1.255,14.339,2.857,14.339,12.778H71.965
		L74.864,310.525z"/>
	<polygon fill="#EEA886" points="107.93,250.395 108.85,248.697 108.972,250.624 	"/>
	<path fill="#B5DEFF" d="M46.673,335.504l-18.94-79.601c0,0,34.241-5.35,38.32,10.026c4.08,15.377,10.791,61.05,18.949,63.874
		C93.161,332.628,46.673,335.504,46.673,335.504z"/>
	<path fill="#152C3D" d="M90.714,294.046c0,0-0.349,1.461-0.722,2.67l-8.331-10.804L90.714,294.046z"/>
	<path fill="#1D3B54" d="M69.83,244.531c0,0,3.293,8.7,2.398,11.076c0,0,5.14-2.195,4.202-7.896
		C75.492,242.013,69.83,244.531,69.83,244.531z"/>
	<polygon fill="#1D3B54" points="81.708,262.62 81.708,260.898 74.398,257.339 71.87,260.26 	"/>
	<circle fill="#BFB2AC" cx="104.787" cy="388.952" r="2.832"/>
	<polygon fill="#918783" points="43.841,386.146 44.558,388.163 74.864,378.773 73.411,374.688 	"/>
	<polygon fill="#918783" points="104.787,386.146 104.07,388.163 73.765,378.773 75.096,374.432 	"/>
	<polygon fill="#918783" points="83.435,387.947 83.435,390.295 73.765,378.773 75.096,374.432 	"/>
	<circle fill="#BFB2AC" cx="80.843" cy="388.952" r="2.832"/>
	<circle fill="#BFB2AC" cx="43.841" cy="388.952" r="2.832"/>
	<g>
		<path fill="#EEF0F7" d="M441.252,104.44c0,7.513-2.701,14.393-7.184,19.725c-1.05,1.247-2.195,2.409-3.427,3.474
			c-0.352,0.304-0.711,0.602-1.076,0.888c-0.413,0.326-0.834,0.641-1.263,0.947c-4.036,2.86-8.794,4.769-13.945,5.398
			c-0.907,0.112-1.828,0.184-2.759,0.214c-0.334,0.011-0.67,0.016-1.007,0.016c-0.992,0-1.974-0.047-2.94-0.139
			c-1.081-0.103-2.145-0.261-3.19-0.475c-4.646-0.941-8.909-2.934-12.533-5.72c-1.095-0.839-2.128-1.749-3.096-2.726
			c-0.188-0.19-0.375-0.383-0.558-0.578c-0.688-0.726-1.336-1.486-1.946-2.277c-4.013-5.183-6.399-11.687-6.399-18.747
			c0-16.935,13.728-30.663,30.663-30.663C427.524,73.777,441.252,87.505,441.252,104.44z"/>
		<g>
			<g>
				<path fill="#D9C7C1" d="M430.564,121.359l-2.262,8.115c-4.036,2.86-8.794,4.769-13.945,5.398
					c-0.907,0.112-1.828,0.184-2.759,0.214c-0.334,0.011-0.67,0.016-1.007,0.016c-0.992,0-1.974-0.047-2.94-0.139
					c-1.081-0.103-2.145-0.261-3.19-0.475c-4.646-0.941-8.909-2.934-12.533-5.72c-0.434-2.683-0.899-5.652-1.31-8.429
					c2.254-0.839,9.427-3.278,13.953-4.809c0.063-0.022,0.127-0.042,0.188-0.063c0.1-0.035,0.197-0.068,0.294-0.1
					c0.269-0.09,0.524-0.178,0.769-0.26c0.248-0.084,0.484-0.163,0.704-0.239c0.927-0.312,1.581-0.532,1.814-0.609
					c0.002-0.002,0.002-0.002,0.004-0.002c0.061-0.021,0.092-0.032,0.092-0.032l0.053,0.004l6.087,0.456l1.021,0.076l0.318,0.024
					c0,0,0.047,0.011,0.139,0.035c0.367,0.093,1.434,0.373,2.846,0.804c0.002,0,0.005,0.002,0.007,0.002
					C422.51,116.728,428.358,118.823,430.564,121.359z"/>
			</g>
			<g>
				<path fill="#EEA987" d="M412.186,89.214c0,0,7.3,1.232,6.061,12.661c-1.238,11.429-7.681,10.421-8.113,10.404
					c-0.431-0.016-6.48,0.138-6.8-13.836C403.335,98.443,403.242,88.112,412.186,89.214z"/>
			</g>
			<g>
				<path fill="#EEA987" d="M415.385,108.966c0,0-0.251,4.704,0.192,5.727c0.445,1.024-5.861,4.263-9.779,0.574
					c0,0,0.792-5.142,0.546-6.957C406.098,106.495,415.385,108.966,415.385,108.966z"/>
			</g>
			<g>
				<path fill="#EEA987" d="M418.397,98.645c0,0,0.81-0.847,1.094,0.022c0.284,0.869-1.294,4.721-1.195,4.896
					c0,0-0.149,0.334-0.34,0.147C417.766,103.523,418.397,98.645,418.397,98.645z"/>
			</g>
			<g>
				<path fill="#EEA987" d="M403.419,98.336c0,0-0.775-0.879-1.095-0.022c-0.319,0.856,0.848,4.703,0.993,4.941
					c0,0,0.251,0.395,0.449,0.216C403.964,103.292,403.419,98.336,403.419,98.336z"/>
			</g>
			<g>
				<path fill="#E8734D" d="M418.864,97.673c-0.253,1.564-0.489,2.726-0.489,2.726l-1.063,1.387c0,0,0.063-3.068-0.1-3.55
					c-0.061-0.183-0.134-0.506-0.208-0.857c-0.123-0.578-0.247-1.231-0.333-1.448c-0.137-0.348-6.257-2.135-11.708,0.374
					c0,0,0.047,0.472,0.043,0.998c-0.001,0.612-0.068,1.298-0.35,1.402c-0.522,0.191-0.305,3.59-0.305,3.59l-0.85-0.98
					c0,0-0.246-1.776-0.487-3.817c0,0-0.001-0.005-0.002-0.015c-0.055-0.476-0.111-0.965-0.164-1.451
					c-0.122-2.053,0.081-5.781,2.755-7.971c1.804-0.772,4.684-1.428,9.484,0.042c0,0,1.102,0.073,1.41,0.371
					C419.489,91.767,418.864,97.673,418.864,97.673z"/>
			</g>
			<path fill="#C78D71" d="M406.845,110.751c0,0,1.165,1.618,3.872,1.557c2.707-0.061,3.882-1.473,3.882-1.473
				s-1.281,2.681-3.895,2.652C408.09,113.459,406.845,110.751,406.845,110.751z"/>
			<path fill="#EEA987" d="M405.054,115.366c0,0,1.956,3.406,5.668,3.727c2.355,0.203,4.393-2.781,5.349-4.246
				C416.07,114.847,410.798,112.589,405.054,115.366z"/>
			<path fill="#EDDAD3" d="M415.393,113.77c0,0-1.492,1.955-4.672,4.047l1.977,3.046l3.371-6.017L415.393,113.77z"/>
			<path fill="#EDDAD3" d="M405.946,114.225c0,0,1.899,2.38,4.775,3.592l-2.17,3.138l-3.793-5.489L405.946,114.225z"/>
			<path fill="#5073AB" d="M410.722,117.817l1.694,2.578c0,0-1.778,1.007-3.434-0.064L410.722,117.817z"/>
			<path fill="#323657" d="M432.522,120.879c0,0-0.017,0.059-0.049,0.17c-0.186,0.662-0.901,3.206-1.832,6.59
				c-0.352,0.304-0.711,0.602-1.076,0.888c-0.413,0.326-0.834,0.641-1.263,0.947c-4.036,2.86-8.794,4.769-13.945,5.398
				c0.454-10.614,1.714-20.026,1.714-20.026c0.994,0.261,1.936,0.521,2.828,0.777c0.002,0,0.005,0.002,0.007,0.002
				c7.78,2.233,11.725,4.192,13.071,4.937c0.011,0.004,0.021,0.011,0.029,0.016C432.357,120.773,432.522,120.879,432.522,120.879z"
				/>
			<path fill="#323657" d="M404.46,134.487c-4.646-0.941-8.909-2.934-12.533-5.72c-1.095-0.839-2.128-1.749-3.096-2.726
				c-0.188-0.19-0.375-0.383-0.558-0.578c-0.537-2.279-0.893-3.767-0.917-3.863l-0.001-0.005c0,0,3.794-2.493,17.215-6.074
				c0,0,0,0.003,0,0.008C404.57,115.837,404.578,124.447,404.46,134.487z"/>
			<path fill="#5073AB" d="M411.692,120.679c-0.125,2.795-0.138,8.219-0.095,14.407c-0.334,0.011-0.67,0.016-1.007,0.016
				c-0.992,0-1.974-0.047-2.94-0.139c0.59-7.632,1.584-12.404,2.037-14.292c0.148-0.619,0.239-0.927,0.239-0.927l1.799,0.297
				C411.713,120.235,411.702,120.447,411.692,120.679z"/>
			<g>
				<path fill="#323657" d="M434.067,124.165c-1.05,1.247-2.195,2.409-3.427,3.474c-0.352,0.304-0.711,0.602-1.076,0.888
					l2.412-7.965l0.001-0.003c0.01,0.006,0.02,0.011,0.028,0.019c0.148,0.097,0.303,0.255,0.467,0.472
					C432.946,121.667,433.488,122.755,434.067,124.165z"/>
			</g>
			<g>
				<path fill="#323657" d="M388.831,126.042c-0.188-0.19-0.375-0.383-0.558-0.578c-0.688-0.726-1.336-1.486-1.946-2.277
					c0.346-0.828,0.691-1.383,1.028-1.591l0.001,0.005L388.831,126.042z"/>
			</g>
		</g>
	</g>
	<path fill="#F5F7FF" d="M225.458,72.171h-34.398c-1.908,0-3.454-1.546-3.454-3.454v-2.7c0-1.908,1.546-3.454,3.454-3.454h34.398
		c1.908,0,3.454,1.546,3.454,3.454v2.7C228.912,70.625,227.365,72.171,225.458,72.171z"/>
	<g>
		<g>
			<g>
				<g>
					<path fill="#78C2FF" d="M204.687,135.098c1.918,0.65,3.971,1.013,6.108,1.042c6.471,0.083,12.26-2.941,15.942-7.688
						c2.553-3.292,4.095-7.409,4.15-11.895c0.006-0.445-0.003-0.89-0.025-1.329c-0.106-1.992-0.507-3.906-1.16-5.702
						c-2.736-7.532-9.909-12.954-18.395-13.063c-4.573-0.06-8.802,1.433-12.191,3.989c-4.734,3.57-7.823,9.21-7.904,15.595
						C191.099,124.866,196.758,132.416,204.687,135.098z M196.175,116.11c0.061-4.752,2.346-8.956,5.852-11.632
						c2.555-1.952,5.754-3.094,9.215-3.051c6.363,0.082,11.741,4.147,13.793,9.794l0.004,0.008c0.487,1.343,0.786,2.776,0.867,4.267
						c0.017,0.33,0.022,0.661,0.02,0.997c-0.044,3.363-1.201,6.449-3.113,8.915c-2.761,3.562-7.1,5.83-11.951,5.767
						c-1.605-0.02-3.143-0.293-4.582-0.781C200.336,128.385,196.091,122.726,196.175,116.11z"/>
				</g>
			</g>
		</g>
		<g>
			<g>
				<g>
					<path fill="#1A598C" d="M222.811,125.41l3.926,3.04c-3.683,4.748-9.471,7.773-15.942,7.689
						c-2.137-0.027-4.189-0.392-6.108-1.041l1.593-4.704c1.439,0.486,2.978,0.759,4.58,0.78
						C215.71,131.238,220.05,128.97,222.811,125.41z"/>
				</g>
			</g>
		</g>
		<g>
			<g>
				<g>
					<path fill="#2273B5" d="M225.903,115.496l4.959-0.269c0.023,0.439,0.032,0.884,0.026,1.33
						c-0.057,4.485-1.599,8.603-4.151,11.894l-3.926-3.04c1.913-2.467,3.069-5.554,3.112-8.917
						C225.927,116.158,225.92,115.826,225.903,115.496z"/>
				</g>
			</g>
		</g>
		<g>
			<g>
				<g>
					<path fill="#2273B5" d="M225.904,115.497c-0.081-1.491-0.379-2.924-0.867-4.267l-0.004-0.008l4.668-1.696
						c0.653,1.796,1.054,3.71,1.16,5.702L225.904,115.497z"/>
				</g>
			</g>
		</g>
		<g>
			<g>
				<g>
					<path fill="#4DA8F2" d="M199.115,100.452c3.389-2.557,7.618-4.049,12.191-3.989c8.486,0.109,15.659,5.531,18.395,13.063
						l-4.664,1.704l-0.004-0.008c-2.052-5.647-7.43-9.713-13.793-9.794c-3.461-0.043-6.66,1.099-9.215,3.051L199.115,100.452z"/>
				</g>
			</g>
		</g>
	</g>
	<g>
		<g>
			<path fill="#78C2FF" d="M358.65,174.623h-12.852c-2.555,0-4.625-2.07-4.625-4.624v-12.852c0-2.554,2.07-4.624,4.625-4.624h12.852
				c2.555,0,4.625,2.071,4.625,4.624v12.852C363.275,172.553,361.205,174.623,358.65,174.623z"/>
		</g>
		<g>
			<g>
				<g>
					<path fill="#F3F3F3" d="M351.525,168.44l-5.588-4.871c-0.458-0.399-0.506-1.095-0.107-1.553c0.4-0.458,1.095-0.505,1.553-0.106
						l3.951,3.445l5.634-6.285c0.406-0.453,1.103-0.49,1.555-0.084c0.453,0.406,0.49,1.102,0.084,1.554L351.525,168.44z"/>
				</g>
			</g>
		</g>
	</g>
	<g>
		<g>
			<path fill="#78C2FF" d="M358.65,202.944h-12.852c-2.555,0-4.625-2.07-4.625-4.624v-12.852c0-2.554,2.07-4.624,4.625-4.624h12.852
				c2.555,0,4.625,2.07,4.625,4.624v12.852C363.275,200.874,361.205,202.944,358.65,202.944z"/>
		</g>
		<g>
			<g>
				<g>
					<path fill="#F3F3F3" d="M351.525,196.762l-5.588-4.871c-0.458-0.399-0.506-1.095-0.107-1.553
						c0.4-0.458,1.095-0.505,1.553-0.106l3.951,3.444l5.634-6.284c0.406-0.453,1.103-0.491,1.555-0.085
						c0.453,0.406,0.49,1.102,0.084,1.554L351.525,196.762z"/>
				</g>
			</g>
		</g>
	</g>
	<g>
		<g>
			<path fill="#78C2FF" d="M358.65,231.267h-12.852c-2.555,0-4.625-2.071-4.625-4.625V213.79c0-2.554,2.07-4.625,4.625-4.625h12.852
				c2.555,0,4.625,2.071,4.625,4.625v12.852C363.275,229.195,361.205,231.267,358.65,231.267z"/>
		</g>
	</g>
	<g>
		<g>
			<g>
				<g>
					<path fill="#1D2033" d="M271.155,362.139c0,0,0.667,4.479,1.114,6.39c0.447,1.911,4.578,7.391,4.505,8.323
						c-0.073,0.932-1.821,2.03-2.7,1.279c-0.879-0.75-6.717-6.748-7.964-9.317c-1.248-2.569-5.376-5.919-5.798-7.059
						c-0.422-1.142,4.869-4.479,6.232-5.011S271.155,362.139,271.155,362.139z"/>
				</g>
			</g>
		</g>
		<path fill="#EEA886" d="M260.809,282.436c0,0,0.546,2.857,0.948,3.385c0.402,0.528,1.488,3.184,1.598,3.559
			c0.11,0.373,0.777,3.056,0.891,3.395c0.113,0.34-0.65,0.869-1.172,0.152c-0.325-0.445-0.894-2.182-1.125-2.742
			c-0.231-0.56-0.943-2.333-1.135-2.01c-0.192,0.323-0.145,2.701-0.177,3.313c-0.032,0.611,0.357,2.492,0.539,3.271
			s1.217,4.042,0.802,4.218c-0.415,0.176-0.766,0.128-1.302-0.748c0,0-0.849,0.475-1.345-0.6c0,0-0.76,0.275-1.23-1.125
			c0,0-0.54-0.297-0.75-0.799c-0.209-0.502-1.44-4.795-1.429-6.547c0.011-1.75,0.422-2.971,0.347-4.206
			c-0.075-1.236-0.708-3.88-0.708-3.88L260.809,282.436z"/>
		<polygon fill="#50558A" points="268.133,356.041 266.543,356.743 271.155,362.139 272.683,360.447 		"/>
		<path fill="#1D2033" d="M284.251,367.347c0,0-1.027,2.475-1.892,3.455c-0.866,0.981-4.18,2.734-4.197,5.647
			c-0.02,3.159,5.586,2.282,7.779,2.167c2.192-0.116,2.358-1.804,3.281-3.592c0.923-1.788,1.853-1.485,2.027-2.929
			c0.173-1.442-0.707-4.671-0.707-4.671L284.251,367.347z"/>
		<path fill="#50558A" d="M284.155,366.433l-0.16,1.499c0,0,3.448,1.239,6.708,0.129l-0.182-2.048L284.155,366.433z"/>
		<path fill="#292C47" d="M303.279,328.367c0-3.893-2.843-37.873-2.713-39.171c0.086-0.847-0.818-8.981-1.458-14.539
			c-0.005-0.048-0.011-0.096-0.017-0.142c0-0.012-0.003-0.023-0.003-0.034c-0.182-1.561-0.339-2.907-0.444-3.81
			c-0.049-0.418-0.087-0.742-0.111-0.947c-0.021-0.17-0.031-0.26-0.031-0.26s-18.339-3.616-27.847-0.2
			c-0.396,0.144-0.778,0.298-1.142,0.466c0,0-0.023,0.162-0.065,0.466c-0.096,0.703-0.294,2.169-0.559,4.161
			c-0.045,0.336-0.091,0.687-0.141,1.051c-1.353,10.245-0.484,21.379,1.885,32.777c2.324,11.181,3.603,19.543,3.842,21.167
			c0.315,2.131,1.248,7.993,2.28,14.422c-5.048,6.225-9.35,11.518-9.03,12.044c0.797,1.301,7.879,8.633,8.268,7.335
			c0,0,1.279-1.448,3.282-3.756c0.637,3.933,1.073,6.616,1.073,6.616s7.763,1.853,10.619,0.166c0,0-1.123-8.529-2.294-17.803
			C295.801,339.846,303.279,330.407,303.279,328.367z M286.066,325.555c-0.097-5.228-2.423-34.529-2.177-34.529
			c1.145,0,7.592,27.903,7.832,31.83c0.049,0.804-0.957,2.603-2.581,4.971c-0.731,1.066-1.588,2.246-2.53,3.503l-0.001,0.001
			C286.288,328.459,286.081,326.347,286.066,325.555z"/>
		<g>
			<path fill="#D9C7C1" d="M306.342,220.862l-4.932,17.692c-0.169,0.573-0.371,1.279-0.585,2.101l-0.008,0.031
				c-0.002,0.007-0.005,0.014-0.006,0.021c-0.823,3.153-1.841,7.961-2.145,13.302c-0.206,3.641,0.47,18.278,0.47,18.278
				s-7.463,2.784-18.629,2.079c0,0-12.011-0.28-11.031-7.645c2.592-19.49,0.057-27.526-0.282-29.483c0,0-1.63-9.467-2.797-17.398
				c3.38-1.258,17.817-6.112,17.817-6.112l7.479,0.56C291.692,214.288,303.058,217.087,306.342,220.862z"/>
		</g>
		<g>
			<path fill="#EEA987" d="M287.965,188.718c0,0,7.3,1.231,6.062,12.66c-1.238,11.429-7.682,10.421-8.113,10.405
				c-0.431-0.016-6.481,0.138-6.8-13.836C279.113,197.947,279.02,187.615,287.965,188.718z"/>
		</g>
		<g>
			<path fill="#EEA987" d="M291.164,208.47c0,0-0.252,4.704,0.192,5.727c0.444,1.024-5.862,4.263-9.78,0.573
				c0,0,0.792-5.142,0.546-6.958C281.876,205.998,291.164,208.47,291.164,208.47z"/>
		</g>
		<g>
			<path fill="#EEA987" d="M294.175,198.147c0,0,0.81-0.846,1.094,0.023c0.284,0.869-1.294,4.722-1.195,4.896
				c0,0-0.15,0.334-0.34,0.147C293.544,203.026,294.175,198.147,294.175,198.147z"/>
		</g>
		<g>
			<path fill="#EEA987" d="M279.197,197.84c0,0-0.775-0.879-1.095-0.022c-0.32,0.856,0.848,4.703,0.993,4.94
				c0,0,0.251,0.395,0.449,0.216C279.743,202.795,279.197,197.84,279.197,197.84z"/>
		</g>
		<g>
			<path fill="#E8734D" d="M294.642,197.176c-0.252,1.564-0.489,2.726-0.489,2.726l-1.063,1.388c0,0,0.063-3.068-0.1-3.55
				c-0.061-0.183-0.134-0.506-0.208-0.856c-0.122-0.578-0.247-1.231-0.333-1.448c-0.137-0.347-6.257-2.135-11.707,0.374
				c0,0,0.046,0.472,0.043,0.999c-0.002,0.612-0.069,1.298-0.35,1.402c-0.522,0.191-0.304,3.59-0.304,3.59l-0.85-0.981
				c0,0-0.246-1.775-0.488-3.816c0,0-0.001-0.005-0.002-0.015c-0.055-0.476-0.111-0.966-0.164-1.451
				c-0.122-2.053,0.082-5.781,2.754-7.971c1.804-0.772,4.684-1.429,9.485,0.042c0,0,1.101,0.073,1.41,0.371
				C295.267,191.27,294.642,197.176,294.642,197.176z"/>
		</g>
		<path fill="#C78D71" d="M282.623,210.255c0,0,1.165,1.618,3.872,1.557c2.707-0.061,3.882-1.472,3.882-1.472
			s-1.281,2.68-3.895,2.652C283.869,212.963,282.623,210.255,282.623,210.255z"/>
		<path fill="#EEA987" d="M280.832,214.869c0,0,1.957,3.406,5.668,3.727c2.355,0.204,4.393-2.78,5.349-4.246
			C291.849,214.35,286.576,212.093,280.832,214.869z"/>
		<path fill="#EDDAD3" d="M291.172,213.272c0,0-1.493,1.956-4.672,4.048l1.978,3.046l3.371-6.017L291.172,213.272z"/>
		<path fill="#EDDAD3" d="M281.725,213.729c0,0,1.899,2.381,4.775,3.592l-2.17,3.138l-3.794-5.489L281.725,213.729z"/>
		<path fill="#5073AB" d="M286.5,217.32l1.694,2.578c0,0-1.779,1.006-3.433-0.064L286.5,217.32z"/>
		<path fill="#1D2033" d="M269.066,275.693c0,0,9.16,3.379,29.874,0.195l-0.275-3.75c0,0-12.007,3.543-29.233,0.509L269.066,275.693
			z"/>
		<path fill="#323657" d="M291.849,214.35c0,0-2.142,16-1.848,29.8c0.293,13.801,10.717,38.862,10.717,38.862
			s4.556-4.406,6.54-6.901c0,0-7.093-20.467-6.963-24.159c0.13-3.691,8.005-31.568,8.005-31.568S303.923,217.528,291.849,214.35z"/>
		<path fill="#323657" d="M280.349,215.025c0,0,0.018,15.324-0.276,29.124c-0.293,13.801-2.111,39.492-2.111,39.492
			s-10.202-1.615-12.185-4.11c0,0,4.133-23.888,4.003-27.58c-0.13-3.691-6.645-30.851-6.645-30.851S266.927,218.606,280.349,215.025
			z"/>
		<rect x="281.559" y="273.294" fill="#3A4066" width="5.627" height="4.185"/>
		<path fill="#5073AB" d="M285.705,219.246c0,0-2.514,8.579-2.733,25.619c-0.219,17.039,0.309,21.925,0.309,21.925l1.962,3.883
			l2.615-4.052c0,0-0.838-39.209-0.353-47.076L285.705,219.246z"/>
		<g>
			<g>
				<g>
					<g>
						<g>
							<path fill="#EEA886" d="M300.15,283.156c0,0,0.614-0.41,0.783-0.701c0,0,0.26-0.552,0.473-0.934
								c0.068-0.12,0.13-0.225,0.179-0.288c0.201-0.267,0.735-0.8,1.013-1.557c0.278-0.755,0.511-4.275,0.511-4.275l-2.159-0.634
								l-1.921-0.845c0,0-4.205,3.224-4.558,3.903c-0.034,0.066-0.065,0.133-0.088,0.198c-0.234,0.599-0.119,1.129-0.201,1.455
								c-0.029,0.119-0.227,1.329,0.056,1.597c0.393,0.372,0.84,0.491,1.236,0.434c0,0,0.806,0.699,1.572,0.762
								c0,0,0.72,0.666,1.701,0.509C298.747,282.779,299.565,283.383,300.15,283.156z"/>
						</g>
					</g>
				</g>
			</g>
		</g>
		<g>
			<path fill="#323657" d="M297.397,273.533c0,0,2.918,2.572,7.007,3.945c0,0,13.556-22.09,13.727-23.683
				c0.158-1.476-6.725-31.513-9.832-33.413l-5.642,16.52c0.374-0.109,6.421,12.549,6.444,14.177
				C309.135,253.262,297.397,273.533,297.397,273.533z"/>
		</g>
		<g>
			<path fill="#323657" d="M262.405,285.424c0,0-3.046,0.566-7.453,0.317c0,0,1.717-28.354,1.545-29.948
				c-0.158-1.475,3.531-32.791,6.636-34.692l5.54,16.692c-0.374-0.109-3.714,17.075-3.738,18.703
				C264.905,258.679,262.405,285.424,262.405,285.424z"/>
		</g>
		<polygon fill="#292C47" points="293.849,276.672 302.559,281.189 299.135,287.528 291.721,279.602 		"/>
		<path fill="#1D2033" d="M289.14,327.826l-0.88,17.238l-1.65-13.734v-0.001C287.552,330.072,288.408,328.893,289.14,327.826z"/>
	</g>
	<g>
		<rect x="245.298" y="118.292" fill="#78C2FF" width="5.084" height="16.67"/>
	</g>
	<path fill="#EEF0F7" d="M432.548,229.348c0,12.965-10.505,23.564-23.564,23.564c-13.039,0-23.565-10.573-23.565-23.564
		c0-13.015,10.551-23.566,23.565-23.566C421.997,205.782,432.548,216.333,432.548,229.348z"/>
	<g>
		<rect x="236.964" y="122.968" fill="#78C2FF" width="5.084" height="11.995"/>
	</g>
	<g>
		<rect x="253.631" y="110.566" fill="#78C2FF" width="5.084" height="24.396"/>
	</g>
	<g>
		<g>
			<rect x="465.45" y="296.883" fill="#E2D2CA" width="32.701" height="1.941"/>
		</g>
		<g>
			<rect x="490.903" y="303.876" fill="#706865" width="2.865" height="88.28"/>
		</g>
		<g>
			<rect x="447.838" y="296.333" fill="#CCBDB7" width="22.73" height="2.772"/>
		</g>
		<g>
			<rect x="454.899" y="272.68" fill="#4667A8" width="8.607" height="26.145"/>
		</g>
		<g>
			<rect x="383.942" y="298.856" fill="#B59074" width="125.939" height="5.019"/>
		</g>
		<g>
			<path fill="#FFC05C" d="M534.053,268.475c0,0,1.377,19.317-2.397,21.629c-2.364,1.448-11.791,6.332-11.512,7.248
				c0.279,0.916,5.323,8.15,5.323,8.15s18.107-11.924,18.691-15.682c0.57-3.671-0.892-28.283-3.38-29.417
				c-1.864-0.85-2.849-0.146-5.197,1.598C532.283,264.449,534.053,268.475,534.053,268.475z"/>
		</g>
		<g>
			<g>
				<g>
					<path fill="#424773" d="M511.773,380.104c0,0,0.562,3.908,0.634,4.495c0.07,0.587,6.264-0.346,6.264-0.346l0.501-4.653
						C519.172,379.6,512.548,379.552,511.773,380.104z"/>
				</g>
			</g>
		</g>
		<g>
			<g>
				<g>
					<path fill="#292C47" d="M512.342,384.102c0,0-1.963,2.355-3.861,3.382c-1.897,1.026-4.88,1.434-6.003,2.496
						c-0.81,0.767-2.95,4.068,4.933,4.002c7.882-0.067,11.683,0.466,12.527-0.8c0.845-1.266-1.222-9.345-1.222-9.345
						S516.849,384.509,512.342,384.102z"/>
				</g>
			</g>
		</g>
		<g>
			<g>
				<g>
					<path fill="#424773" d="M472.093,380.141c0,0,0.563,3.908,0.633,4.494c0.07,0.588,6.264-0.346,6.264-0.346l0.502-4.652
						C479.491,379.637,472.867,379.589,472.093,380.141z"/>
				</g>
			</g>
		</g>
		<g>
			<g>
				<g>
					<path fill="#292C47" d="M472.66,384.139c0,0-1.963,2.355-3.861,3.382c-1.897,1.026-8.882,1.87-10.004,2.933
						c-0.81,0.766-2.157,3.854,8.934,3.565c7.88-0.205,11.684,0.466,12.527-0.8c0.846-1.266-1.222-9.345-1.222-9.345
						S477.275,384.592,472.66,384.139z"/>
				</g>
			</g>
		</g>
		<g>
			<g>
				<g>
					<path fill="#292C47" d="M531.75,312.59c0,0-22.518,3.81-27.603,4.607c-5.086,0.799-32.662,7.661-36.11,9.752
						c-2.745,1.664,1.439,41.638,2.417,56.888h10.861l0.788-45.747c13.034,0.326,22.335-3.049,31.826-1.607
						c9.491,1.441,17.403,3.49,23.435-4.6C537.364,331.883,537.588,314.355,531.75,312.59z"/>
				</g>
			</g>
		</g>
		<g>
			<g>
				<g>
					<path fill="#292C47" d="M509.556,383.874l10.585-0.655l1.031-45.129c5.611,0.141,7.534-0.216,12.076-0.766l8.545-19.865
						c-7.489,1.497-31.486,7.55-34.687,9.49C504.361,328.614,508.578,368.623,509.556,383.874z"/>
				</g>
			</g>
		</g>
		<g>
			<g>
				<g>
					<path fill="#EEA886" d="M521.385,228.186c0,0-8.254-2.281-11.404,4.127c-3.148,6.408-1.721,18.556,2.439,19.698
						c4.16,1.143,10.142-0.173,11.869-4.161c1.727-3.988,3.104-9.655,2.691-13.325C526.567,230.854,523.577,229.063,521.385,228.186
						z"/>
				</g>
			</g>
		</g>
		<g>
			<g>
				<g>
					<path fill="#EEA886" d="M514.576,250.732c0,0,0.091,4.873-0.446,5.912c-0.537,1.039,11.494,0.777,11.494,0.777
						s-1.896-5.852-0.82-10.837C525.868,241.65,514.576,250.732,514.576,250.732z"/>
				</g>
			</g>
		</g>
		<g>
			<g>
				<g>
					<path fill="#3A3F47" d="M525.451,244.74c0,0-0.643,1.307-3.757,1.096c-3.114-0.211-7.222-3.968-8.543-4.304
						c-1.323-0.335-1.401-1.088-1.401-1.088l-0.699,1.243l-1.355,0.207c0,0,0.92-3.766-1.086-5.092
						c-2.006-1.326,0.903-12.004,11.059-9.429c0,0,7.75,1.419,7.854,5.747C527.627,237.448,526.956,242.447,525.451,244.74z"/>
				</g>
			</g>
		</g>
		<g>
			<g>
				<g>
					<path fill="#E2D2CA" d="M513.497,256.52c0,0,0.034-1.985,0.934-2.176c0.9-0.19,9.458-1.367,10.562-0.934l0.475,2.621
						C525.467,256.031,523.339,257.342,513.497,256.52z"/>
				</g>
			</g>
		</g>
		<g>
			<g>
				<g>
					<path fill="#EEA886" d="M511.022,239.557c0.23-1.627,2.08-3.495,3.14-0.961c1.06,2.533-0.715,6.225-1.903,6.026
						C511.069,244.424,510.708,241.764,511.022,239.557z"/>
				</g>
			</g>
		</g>
		<g>
			<g>
				<g>
					<path fill="#323657" d="M477.653,279.973c0.004-0.002,0.01-0.003,0.015-0.002C477.606,279.998,477.598,280,477.653,279.973z"/>
				</g>
			</g>
		</g>
		<g>
			<g>
				<g>
					<path fill="#3A3F47" d="M523.792,229.348c0,0,10.064-0.474,1.757,15.237L523.792,229.348z"/>
				</g>
			</g>
		</g>
		<g>
			<g>
				<polygon fill="#918783" points="546.217,389.227 545.468,391.333 513.834,381.532 515.351,377.267 				"/>
			</g>
		</g>
		<g>
			<g>
				<rect x="512.749" y="345.639" fill="#918783" width="3.596" height="34.393"/>
			</g>
		</g>
		<g>
			<g>
				<rect x="503.943" y="343.811" fill="#5E5854" width="21.207" height="2.027"/>
			</g>
		</g>
		<g>
			<g>
				<polygon fill="#918783" points="482.599,389.227 483.348,391.333 514.981,381.532 513.592,376.999 				"/>
			</g>
		</g>
		<g>
			<g>
				<polygon fill="#918783" points="504.888,391.108 504.888,393.558 514.981,381.532 513.592,376.999 				"/>
			</g>
		</g>
		<g>
			<g>
				<circle fill="#BFB2AC" cx="482.599" cy="392.156" r="2.957"/>
			</g>
		</g>
		<g>
			<g>
				<circle fill="#BFB2AC" cx="507.592" cy="392.156" r="2.957"/>
			</g>
		</g>
		<g>
			<g>
				<circle fill="#BFB2AC" cx="546.216" cy="392.156" r="2.957"/>
			</g>
		</g>
		<g>
			<path fill="#E2D2CA" d="M493.077,343.811h42.661c2.093,0,3.789-1.696,3.789-3.789v-0.097c0-2.093-1.696-3.79-3.789-3.79h-42.661
				c-2.093,0-3.789,1.697-3.789,3.79v0.097C489.288,342.114,490.984,343.811,493.077,343.811z"/>
		</g>
		<g>
			<rect x="400.056" y="303.876" fill="#706865" width="2.864" height="88.28"/>
		</g>
		<g>
			<path fill="#5F8BE3" d="M425.821,285.275h66.764c2.088,0,3.78-1.692,3.78-3.78v-44.872c0-2.088-1.692-3.78-3.78-3.78h-66.764
				c-2.089,0-3.781,1.692-3.781,3.78v44.872C422.04,283.582,423.732,285.275,425.821,285.275z"/>
		</g>
		<g>
			<rect x="424.951" y="235.676" fill="#F5F7FF" width="68.504" height="41.382"/>
		</g>
		<g>
			<rect x="424.951" y="235.676" fill="#CECFD6" width="68.504" height="3.293"/>
		</g>
		<g>
			<path fill="#CECFD6" d="M429.823,274.509h3.58c1.293,0,2.34-1.047,2.34-2.339v-28.384c0-1.292-1.047-2.34-2.34-2.34h-3.58
				c-1.292,0-2.339,1.048-2.339,2.34v28.384C427.484,273.462,428.531,274.509,429.823,274.509z"/>
		</g>
		<g>
			<path fill="#CECFD6" d="M477.715,244.509h12.539c0.698,0,1.264-0.565,1.264-1.263v-0.536c0-0.698-0.566-1.264-1.264-1.264
				h-12.539c-0.698,0-1.264,0.566-1.264,1.264v0.536C476.451,243.943,477.017,244.509,477.715,244.509z"/>
		</g>
		<g>
			<path fill="#CECFD6" d="M479.06,275.354h9.847c1.441,0,2.61-1.168,2.61-2.609v-23.572c0-1.441-1.169-2.609-2.61-2.609h-9.847
				c-1.441,0-2.609,1.168-2.609,2.609v23.572C476.451,274.186,477.619,275.354,479.06,275.354z"/>
		</g>
		<g>
			<circle fill="#5C5552" cx="459.203" cy="280.922" r="2.397"/>
		</g>
		<g>
			<path fill="#2E436E" d="M443.816,298.924v-0.933c0,0,1.311-5.804,10.59-5.804c9.278,0,9.091,6.736,9.091,6.736H443.816z"/>
		</g>
		<g>
			<g>
				<path fill="#EEA886" d="M463.61,293.05c0,0-2.017-0.157-2.755-0.603c-0.738-0.445-5.157-3.417-6.194-2.941
					c-1.038,0.476-7.944,2.592-7.705,3.602c0.24,1.01,0.879,0.912,1.366,0.733c0.487-0.179,5.503-1.231,5.945-1.054
					c0,0-4.926,1.797-4.945,3.108c-0.021,1.311,1.03,1.63,1.497,2.126s1.028,1.728,2.298,1.821c1.27,0.095,7.464-2.06,8.738-2.158
					c1.275-0.099,3.636,0.079,3.796-0.129C465.813,297.348,463.61,293.05,463.61,293.05z"/>
			</g>
		</g>
		<g>
			<g>
				<g>
					<path fill="#FFC05C" d="M500.306,259.271c6.427-1.13,13.191-2.751,13.191-2.751l11.97-0.488c0,0,10.985,2.418,15.312,4.372
						c0.41,0.186,0.412,9.801,1.538,12.321l-3.586,7.567c0,0-2.073,14.989-2.503,21.655c-0.197,3.061,0.559,29.577,0.559,29.577
						s-1.075,0.53-9.244,1.431c-8.169,0.9-28.579-0.325-28.708-1.289c-0.129-0.966,3.952-35.928,4.134-37.738
						c0.276-2.778-0.804-15.619-0.804-15.619c-1.538,2.067-5.462,11.404-9.553,15.846c-2.405,2.613-14.318,4.216-16.564,4.291
						c-4.888,0.163-13.805,1.136-14.065,0.66c-0.207-0.285-0.776-7.914-0.218-8.101c0.49-0.163,17.047-1.116,21.289-3.367
						c1.552-0.823,6.19-10.939,6.19-10.939S496.761,260.863,500.306,259.271z"/>
				</g>
			</g>
		</g>
		<g>
			<path fill="#E2D2CA" d="M523.895,330.759h20.094c4.018,0,7.276-3.259,7.276-7.276V290.05c0-4.019-3.259-7.276-7.276-7.276
				h-20.094c-4.019,0-7.276,3.258-7.276,7.276v33.433C516.618,327.5,519.876,330.759,523.895,330.759z"/>
		</g>
		<g>
			<path fill="#E2D2CA" d="M522.757,341.9c5.107,0,9.25-1.715,12.315-5.099c6.926-7.647,5.681-21.089,5.625-21.657
				c-0.106-1.06-1.051-1.834-2.108-1.728c-1.059,0.104-1.833,1.048-1.729,2.108c0.016,0.153,1.119,12.337-4.653,18.697
				c-2.334,2.573-5.426,3.824-9.45,3.824c-1.064,0-1.928,0.862-1.928,1.927C520.829,341.037,521.692,341.9,522.757,341.9z"/>
		</g>
		<g>
			<path fill="#EEF0F7" d="M460.197,252.59c0,2.371-0.854,4.542-2.268,6.225c-0.332,0.394-0.693,0.761-1.082,1.096
				c-0.11,0.097-0.224,0.19-0.339,0.281c-0.131,0.103-0.264,0.201-0.398,0.299c-1.274,0.902-2.775,1.505-4.4,1.703
				c-0.287,0.035-0.577,0.058-0.871,0.067c-0.105,0.003-0.211,0.005-0.317,0.005c-0.314,0-0.623-0.016-0.928-0.044
				c-0.342-0.032-0.678-0.083-1.008-0.149c-1.465-0.298-2.811-0.927-3.955-1.806c-0.345-0.265-0.671-0.552-0.975-0.86
				c-0.06-0.059-0.119-0.12-0.176-0.182c-0.217-0.23-0.423-0.469-0.615-0.719c-1.266-1.636-2.018-3.688-2.018-5.916
				c0-5.344,4.331-9.676,9.676-9.676C455.864,242.914,460.197,247.246,460.197,252.59z"/>
			<g>
				<g>
					<path fill="#D9C7C1" d="M456.823,257.929l-0.713,2.561c-1.274,0.902-2.775,1.505-4.4,1.703
						c-0.287,0.035-0.577,0.058-0.871,0.067c-0.105,0.003-0.211,0.005-0.317,0.005c-0.314,0-0.623-0.016-0.928-0.044
						c-0.342-0.032-0.678-0.083-1.008-0.149c-1.465-0.298-2.811-0.927-3.955-1.806c-0.137-0.846-0.283-1.783-0.412-2.659
						c0.711-0.266,2.975-1.035,4.403-1.518c0.02-0.007,0.039-0.014,0.059-0.02c0.032-0.012,0.063-0.022,0.093-0.032
						c0.085-0.028,0.166-0.056,0.242-0.082c0.078-0.026,0.153-0.052,0.223-0.075c0.293-0.099,0.499-0.168,0.572-0.192
						c0,0,0.001-0.001,0.002-0.001c0.018-0.006,0.029-0.01,0.029-0.01l0.016,0.001l1.921,0.143l0.322,0.024l0.101,0.008
						c0,0,0.015,0.004,0.044,0.011c0.115,0.03,0.452,0.118,0.898,0.254c0.001,0,0.002,0.001,0.002,0.001
						C454.283,256.468,456.128,257.129,456.823,257.929z"/>
				</g>
				<g>
					<path fill="#EEA987" d="M451.025,247.785c0,0,2.303,0.39,1.912,3.996c-0.391,3.606-2.424,3.287-2.561,3.283
						c-0.135-0.006-2.045,0.043-2.145-4.367C448.231,250.697,448.202,247.438,451.025,247.785z"/>
				</g>
				<g>
					<path fill="#EEA987" d="M452.034,254.019c0,0-0.079,1.484,0.06,1.808c0.141,0.323-1.85,1.345-3.086,0.181
						c0,0,0.25-1.623,0.172-2.195C449.103,253.238,452.034,254.019,452.034,254.019z"/>
				</g>
				<g>
					<path fill="#EEA987" d="M452.984,250.762c0,0,0.256-0.268,0.346,0.007c0.089,0.274-0.408,1.49-0.378,1.545
						c0,0-0.047,0.105-0.106,0.046C452.785,252.301,452.984,250.762,452.984,250.762z"/>
				</g>
				<g>
					<path fill="#EEA987" d="M448.258,250.664c0,0-0.244-0.277-0.345-0.007c-0.101,0.271,0.268,1.484,0.314,1.559
						c0,0,0.079,0.125,0.142,0.068C448.431,252.228,448.258,250.664,448.258,250.664z"/>
				</g>
				<g>
					<path fill="#E8734D" d="M453.132,250.455c-0.08,0.493-0.154,0.859-0.154,0.859l-0.335,0.438c0,0,0.02-0.968-0.032-1.12
						c-0.018-0.058-0.042-0.16-0.065-0.27c-0.038-0.183-0.077-0.388-0.104-0.457c-0.043-0.109-1.975-0.673-3.694,0.118
						c0,0,0.014,0.149,0.014,0.315c-0.001,0.193-0.022,0.409-0.111,0.442c-0.164,0.061-0.096,1.133-0.096,1.133l-0.268-0.31
						c0,0-0.078-0.559-0.154-1.204c0,0,0-0.002,0-0.005c-0.017-0.15-0.035-0.305-0.053-0.458c-0.038-0.647,0.026-1.824,0.869-2.516
						c0.569-0.243,1.479-0.45,2.993,0.014c0,0,0.348,0.023,0.445,0.117C453.329,248.591,453.132,250.455,453.132,250.455z"/>
				</g>
				<path fill="#C78D71" d="M449.339,254.582c0,0,0.368,0.51,1.222,0.491c0.855-0.019,1.226-0.465,1.226-0.465
					s-0.404,0.846-1.229,0.837C449.732,255.436,449.339,254.582,449.339,254.582z"/>
				<path fill="#EEA987" d="M448.773,256.038c0,0,0.617,1.075,1.789,1.176c0.743,0.064,1.387-0.877,1.689-1.34
					C452.251,255.874,450.586,255.162,448.773,256.038z"/>
				<path fill="#EDDAD3" d="M452.036,255.534c0,0-0.471,0.616-1.474,1.277l0.624,0.961l1.065-1.898L452.036,255.534z"/>
				<path fill="#EDDAD3" d="M449.056,255.678c0,0,0.6,0.751,1.507,1.134l-0.685,0.99l-1.197-1.732L449.056,255.678z"/>
				<path fill="#5073AB" d="M450.563,256.812l0.535,0.813c0,0-0.561,0.317-1.084-0.021L450.563,256.812z"/>
				<path fill="#323657" d="M457.441,257.778c-0.009,0.032-0.584,2.1-0.594,2.132c-0.11,0.097-0.224,0.19-0.339,0.281
					c-0.131,0.103-0.264,0.201-0.398,0.299c-1.274,0.902-2.775,1.505-4.4,1.703c0.143-3.35,0.541-6.319,0.541-6.319
					c0.313,0.082,0.61,0.164,0.892,0.245c0.001,0,0.002,0.001,0.002,0.001C454.171,256.414,456.522,257.174,457.441,257.778z"/>
				<path fill="#323657" d="M448.586,262.072c-1.465-0.298-2.811-0.927-3.955-1.806c-0.345-0.265-0.671-0.552-0.975-0.86
					c-0.06-0.059-0.119-0.12-0.176-0.182c-0.17-0.719-0.282-1.189-0.29-1.219v-0.002c0,0,1.196-0.787,5.433-1.917
					c0,0,0,0.001,0,0.003C448.622,256.187,448.624,258.903,448.586,262.072z"/>
				<path fill="#5073AB" d="M450.869,257.715c-0.039,0.881-0.043,2.593-0.03,4.546c-0.105,0.003-0.211,0.005-0.317,0.005
					c-0.314,0-0.623-0.016-0.928-0.044c0.187-2.408,0.5-3.914,0.643-4.51c0.047-0.195,0.075-0.293,0.075-0.293l0.568,0.094
					C450.876,257.574,450.872,257.642,450.869,257.715z"/>
				<g>
					<path fill="#323657" d="M457.93,258.814c-0.332,0.394-0.693,0.761-1.082,1.096c-0.11,0.097-0.224,0.19-0.339,0.281
						c0-0.002,0.932-2.412,0.933-2.413C457.685,257.917,457.823,258.558,457.93,258.814z"/>
				</g>
				<g>
					<path fill="#323657" d="M443.655,259.406c-0.06-0.059-0.119-0.12-0.176-0.182c-0.217-0.23-0.423-0.469-0.615-0.719
						c0.109-0.261,0.218-0.436,0.325-0.502v0.002L443.655,259.406z"/>
				</g>
			</g>
		</g>
	</g>
	<g>
		<path fill="#949494" d="M408.982,238.742c-0.655,0-1.186-0.531-1.186-1.188v-16.417c0-0.655,0.531-1.187,1.186-1.187
			c0.656,0,1.188,0.531,1.188,1.187v16.417C410.17,238.211,409.639,238.742,408.982,238.742z"/>
	</g>
	<g>
		<path fill="#949494" d="M417.191,230.533h-16.417c-0.656,0-1.187-0.531-1.187-1.187c0-0.655,0.53-1.187,1.187-1.187h16.417
			c0.656,0,1.186,0.531,1.186,1.187C418.378,230.002,417.848,230.533,417.191,230.533z"/>
	</g>
</g>
</svg>
